{"title":"L'estate di Giacomo (Alessandro Comodin, 2011)","uid":7912829,"size":1472712110,"categoryP":"video","categoryS":"movies","magnet":"?xt=urn:btih:28261e8149b54e513af6a3eff208e54778218b0a&amp;dn=L%27estate+di+Giacomo+%28Alessandro+Comodin%2C+2011%29&amp;tr=udp%3A%2F%2Ftracker.openbittorrent.com%3A80&amp;tr=udp%3A%2F%2Fopen.demonii.com%3A1337&amp;tr=udp%3A%2F%2Ftracker.coppersurfer.tk%3A6969&amp;tr=udp%3A%2F%2Fexodus.desync.com%3A6969","seeders":3,"leechers":2,"uploader":"tonioferah","files":3,"time":1355264405,"description":"Summer in the north Italian countryside. Giacomo, a deaf teenager of 19, goes to the river with his best friend Stefania for a picnic. Straying from their usual route, they end up getting lost and arrive at a place that is like a little paradise where they are free to be themselves. Over an afternoon, their childhood games take on sensual overtones until they realize that what is happening is no more than the bittersweet memory of an era that is already long lost in the past.\n\n__________________________________\n\n\nGeneral\nComplete name                    : L.Estate.Di.Giacomo.avi\nFormat                           : AVI\nFormat/Info                      : Audio Video Interleave\nFile size                        : 1.37 GiB\nDuration                         : 1h 15mn\nOverall bit rate                 : 2 612 Kbps\nWriting application              : VirtualDubMod 1.5.10.3 | www.virtualdub-fr.org || (build 2550/release)\nWriting library                  : VirtualDubMod build 2550/release\n\nVideo\nID                               : 0\nFormat                           : MPEG-4 Visual\nFormat profile                   : Advanced Simple@L5\nFormat settings, BVOP            : Yes\nFormat settings, QPel            : No\nFormat settings, GMC             : No warppoints\nFormat settings, Matrix          : Default (MPEG)\nCodec ID                         : XVID\nCodec ID/Hint                    : XviD\nDuration                         : 1h 15mn\nBit rate                         : 2 154 Kbps\nWidth                            : 720 pixels\nHeight                           : 400 pixels\nDisplay aspect ratio             : 16:9\nFrame rate                       : 25.000 fps\nColor space                      : YUV\nChroma subsampling               : 4:2:0\nBit depth                        : 8 bits\nScan type                        : Progressive\nCompression mode                 : Lossy\nBits/(Pixel*Frame)               : 0.299\nStream size                      : 1.13 GiB (82%)\nWriting library                  : XviD 1.2.1 (UTC 2008-12-04)\n\nAudio\nID                               : 1\nFormat                           : AC-3\nFormat/Info                      : Audio Coding 3\nMode extension                   : CM (complete main)\nCodec ID                         : 2000\nDuration                         : 1h 15mn\nBit rate mode                    : Constant\nBit rate                         : 448 Kbps\nChannel(s)                       : 6 channels\nChannel positions                : Front: L C R, Side: L R, LFE\nSampling rate                    : 48.0 KHz\nBit depth                        : 16 bits\nCompression mode                 : Lossy\nStream size                      : 241 MiB (17%)\nAlignment                        : Split accross interleaves\nInterleave, duration             : 40 ms (1.00 video frame)\nInterleave, preload duration     : 500 ms\n\n","torrent":{"xt":"urn:btih:28261e8149b54e513af6a3eff208e54778218b0a","amp;dn":"L%27estate+di+Giacomo+%28Alessandro+Comodin%2C+2011%29","amp;tr":["udp%3A%2F%2Ftracker.openbittorrent.com%3A80","udp%3A%2F%2Fopen.demonii.com%3A1337","udp%3A%2F%2Ftracker.coppersurfer.tk%3A6969","udp%3A%2F%2Fexodus.desync.com%3A6969"],"infoHash":"28261e8149b54e513af6a3eff208e54778218b0a","infoHashBuffer":{"type":"Buffer","data":[40,38,30,129,73,181,78,81,58,246,163,239,242,8,229,71,120,33,139,10]},"announce":[],"urlList":[]}}